<svg xmlns="http://www.w3.org/2000/svg" viewBox="0 0 608.47 353.56"><title>Ресурс 3</title><g id="Слой_2" data-name="Слой 2"><g id="Слой_1-2" data-name="Слой 1"><path d="M354.69,86.5c0,22.16-.25,44.34.21,66.49.1,5,2,10.37,4.35,14.95a8.12,8.12,0,0,0,11.24,3.68c6.56-3.4,13.33-6.92,18.82-11.75,18.05-15.86,31.87-35.35,44.54-55.56,10.33-16.49,20.08-33.37,29.33-50.49,6.72-12.42,12.14-25.54,18.28-38.28C486.12,5.87,493.6.42,504.69.44c25.82,0,51.64-.17,77.45.09,9.93.1,16,8.18,12.94,18-3.4,11-7.1,22.27-12.58,32.39-10.6,19.59-22,38.78-34,57.54-13.36,20.88-27.76,41.09-41.69,61.61-2.24,3.31-4.55,6.59-6.47,10.09-4.5,8.2-2.13,16.77,6.28,25.57,21.38,22.4,43.22,44.41,63.72,67.59,11.63,13.14,21.42,28,31.14,42.68,3.63,5.48,5.37,12.51,6.79,19.08,1.84,8.59-6.7,17.71-16.83,17.83-26.65.32-53.31.43-79.95,0-8.91-.13-15.92-5.8-21.91-11.91-12.25-12.48-24-25.42-36.16-38-16.55-17.2-33.87-33.52-54-46.52-9.69-6.25-19.95-10.45-31.86-9.47-5.58.46-10.75,5.11-11.74,11.77a89,89,0,0,0-1,12.42c-.1,18.49-.41,37,.09,55.49.43,15.65-4.23,23.14-22.72,25.32-20.15,2.37-40.51,2.25-60.52-1.87-36.28-7.48-68.84-23.26-98.41-45.41-30.35-22.73-54.75-50.91-76.19-82-19.23-27.85-37.36-56.35-53-86.35C30.21,110,17.14,83.24,9,54.45,5.65,42.84,2,31.2.23,19.32-1.21,9.65,4.05.61,15.17.51q40-.37,79.94,0c8.27.08,14.19,5,17.5,12.25C116.81,22,120.35,31.48,124,41c11.4,29.91,24.7,58.94,41.08,86.43A455.13,455.13,0,0,0,194,171c7.29,9.52,16.31,18,25.67,25.56,10.45,8.43,21.44,3.13,21.71-10.23.7-34.3.84-68.62,1-102.93a147.7,147.7,0,0,0-1.63-18.85c-1.56-12.42-7.2-23-14.82-32.76-2.37-3-4.69-6-7-9.1a13.72,13.72,0,0,1-1.68-14.2A12.67,12.67,0,0,1,229.38.42C243.21.26,257,.1,270.86.06c21.5-.06,43,.15,64.5-.06C350-.14,353.87,5.78,354.58,19.51c.36,7,.1,14,.11,21Z"/></g></g></svg>