<svg xmlns="http://www.w3.org/2000/svg" viewBox="0 0 350.51 358.5"><title>Ресурс 2</title><g id="Слой_2" data-name="Слой 2"><g id="Слой_1-2" data-name="Слой 1"><path d="M262.91,146.53h81.83c1.66,0,1.65,0,2,1.61A158.63,158.63,0,0,1,350,168.56a135.38,135.38,0,0,1,.28,19.63c-.23,4.42-.34,8.86-.89,13.24-.87,7-1.81,14-3.16,20.94a174.33,174.33,0,0,1-16.92,48.11,159.21,159.21,0,0,1-32.63,42.91c-23.38,21.69-50.87,35.36-82.09,41.64a175.7,175.7,0,0,1-37.8,3.45c-33.55-.6-64.69-9.54-93.12-27.45A179.37,179.37,0,0,1,.24,170.17,178.71,178.71,0,0,1,173.8.07C214.31-1,251,10.43,283.85,34c4.41,3.17,8.55,6.73,12.83,10.08.66.52.63.88.05,1.46q-25.35,25.32-50.67,50.68c-.68.69-1.09.46-1.7,0a102.75,102.75,0,0,0-38-19.3,105.6,105.6,0,0,0-94.52,20.59A104.24,104.24,0,0,0,79.1,144.87,103,103,0,0,0,73.73,172c-1.41,23,3.67,44.39,16.09,63.82,15.27,23.89,36.82,39.28,64.33,46.23a109.57,109.57,0,0,0,33.67,2.75,113,113,0,0,0,36.87-8.07c19.85-8.26,35-21.65,44.26-41.26a87,87,0,0,0,6.11-18.11c.3-1.37.29-1.38-1.2-1.38H181.38c-2.4,0-2.1.21-2.1-2.08q0-32.65,0-65.3v-.79c0-1.28,0-1.29,1.32-1.29h82.31Z"/></g></g></svg>