<svg xmlns="http://www.w3.org/2000/svg" width="100" height="100" viewBox="0 0 100 100" preserveAspectRatio="xMidYMid meet" style="width: 100%; height: 100%;"><defs><clipPath id="animationMask_0NGnqnd6yx"><rect width="100" height="100" x="0" y="0"></rect></clipPath></defs><g clip-path="url(#animationMask_0NGnqnd6yx)"><g transform="matrix(-3.2688900000000003,0,0,-3.2688900000000003,2144.5896000000002,1224.8004)" opacity="1"><rect width="1280" height="720" fill="#ffffff"></rect></g><g style="user-select: none;" transform="matrix(0.8943800000000001,0,0,0.8943800000000001,-376.80240000000003,-202.42640000000003)" opacity="1"><g opacity="1" transform="matrix(1,0,0,1,479.296,280.015)"><path fill="rgb(0,79,156)" fill-opacity="1" d="M0 0 M49.5,0 C49.5,27.338 27.338,49.5 0,49.5 C-27.338,49.5 -49.5,27.338 -49.5,0 C-49.5,-27.338 -27.338,-49.5 0,-49.5 C27.338,-49.5 49.5,-27.338 49.5,0z"></path></g><g opacity="1" transform="matrix(1,0,0,1,483.296,282.015)"><path fill="rgb(0,180,238)" fill-opacity="1" d="M0 0 M40.796,0 C40.796,22.531 22.531,40.796 0,40.796 C-22.531,40.796 -40.796,22.531 -40.796,0 C-40.796,-22.531 -22.531,-40.796 0,-40.796 C22.531,-40.796 40.796,-22.531 40.796,0z"></path></g><g opacity="1" transform="matrix(1,0,0,1,485.296,286.015)"><path fill="rgb(172,208,58)" fill-opacity="1" d="M0 0 M32.094,0 C32.094,17.725 17.725,32.094 0,32.094 C-17.725,32.094 -32.094,17.725 -32.094,0 C-32.094,-17.725 -17.725,-32.094 0,-32.094 C17.725,-32.094 32.094,-17.725 32.094,0z"></path></g><g opacity="1" transform="matrix(1,0,0,1,489.296,287.015)"><path fill="rgb(236,54,128)" fill-opacity="1" d="M0 0 M23.39,0 C23.39,12.918 12.918,23.39 0,23.39 C-12.918,23.39 -23.39,12.918 -23.39,0 C-23.39,-12.918 -12.918,-23.39 0,-23.39 C12.918,-23.39 23.39,-12.918 23.39,0z"></path></g><g opacity="1" transform="matrix(1,0,0,1,508,278.066)"><path fill="rgb(255,255,255)" fill-opacity="1" d="M0 0 M21.482,1.436 C21.482,-6.219 19.872999999999998,-13.591999999999999 16.639,-19.936 C16.489,-11.782 12.669000000000004,5.297 -21.482,9.85 C-14.687999999999999,16.107 -5.602000000000001,19.936 4.387,19.936 C9.539,19.936 14.482,18.896 18.964,17.052 C20.762,12.062 21.482,6.904 21.482,1.436z"></path></g></g></g></svg>
